<svg id="visual" viewBox="0 0 2160 1200" width="2160" height="1200" xmlns="http://www.w3.org/2000/svg" xmlns:xlink="http://www.w3.org/1999/xlink" version="1.1"><rect x="0" y="0" width="2160" height="1200" fill="#1a1a1a"></rect><path d="M0 776L32.7 793.8C65.3 811.7 130.7 847.3 196.2 850.3C261.7 853.3 327.3 823.7 392.8 805.5C458.3 787.3 523.7 780.7 589 792.3C654.3 804 719.7 834 785.2 844.8C850.7 855.7 916.3 847.3 981.8 829.5C1047.3 811.7 1112.7 784.3 1178.2 764.8C1243.7 745.3 1309.3 733.7 1374.8 743C1440.3 752.3 1505.7 782.7 1571 787.8C1636.3 793 1701.7 773 1767.2 770.8C1832.7 768.7 1898.3 784.3 1963.8 778.5C2029.3 772.7 2094.7 745.3 2127.3 731.7L2160 718L2160 1201L2127.3 1201C2094.7 1201 2029.3 1201 1963.8 1201C1898.3 1201 1832.7 1201 1767.2 1201C1701.7 1201 1636.3 1201 1571 1201C1505.7 1201 1440.3 1201 1374.8 1201C1309.3 1201 1243.7 1201 1178.2 1201C1112.7 1201 1047.3 1201 981.8 1201C916.3 1201 850.7 1201 785.2 1201C719.7 1201 654.3 1201 589 1201C523.7 1201 458.3 1201 392.8 1201C327.3 1201 261.7 1201 196.2 1201C130.7 1201 65.3 1201 32.7 1201L0 1201Z" fill="#131313"></path><path d="M0 947L32.7 927.7C65.3 908.3 130.7 869.7 196.2 846.7C261.7 823.7 327.3 816.3 392.8 829C458.3 841.7 523.7 874.3 589 879.7C654.3 885 719.7 863 785.2 855.8C850.7 848.7 916.3 856.3 981.8 856.2C1047.3 856 1112.7 848 1178.2 860.7C1243.7 873.3 1309.3 906.7 1374.8 899.7C1440.3 892.7 1505.7 845.3 1571 821.5C1636.3 797.7 1701.7 797.3 1767.2 805.3C1832.7 813.3 1898.3 829.7 1963.8 840.8C2029.3 852 2094.7 858 2127.3 861L2160 864L2160 1201L2127.3 1201C2094.7 1201 2029.3 1201 1963.8 1201C1898.3 1201 1832.7 1201 1767.2 1201C1701.7 1201 1636.3 1201 1571 1201C1505.7 1201 1440.3 1201 1374.8 1201C1309.3 1201 1243.7 1201 1178.2 1201C1112.7 1201 1047.3 1201 981.8 1201C916.3 1201 850.7 1201 785.2 1201C719.7 1201 654.3 1201 589 1201C523.7 1201 458.3 1201 392.8 1201C327.3 1201 261.7 1201 196.2 1201C130.7 1201 65.3 1201 32.7 1201L0 1201Z" fill="#110f0f"></path><path d="M0 883L32.7 905C65.3 927 130.7 971 196.2 975.8C261.7 980.7 327.3 946.3 392.8 943C458.3 939.7 523.7 967.3 589 976.3C654.3 985.3 719.7 975.7 785.2 960.2C850.7 944.7 916.3 923.3 981.8 911.5C1047.3 899.7 1112.7 897.3 1178.2 915.3C1243.7 933.3 1309.3 971.7 1374.8 975.8C1440.3 980 1505.7 950 1571 951C1636.3 952 1701.7 984 1767.2 980.2C1832.7 976.3 1898.3 936.7 1963.8 924.2C2029.3 911.7 2094.7 926.3 2127.3 933.7L2160 941L2160 1201L2127.3 1201C2094.7 1201 2029.3 1201 1963.8 1201C1898.3 1201 1832.7 1201 1767.2 1201C1701.7 1201 1636.3 1201 1571 1201C1505.7 1201 1440.3 1201 1374.8 1201C1309.3 1201 1243.7 1201 1178.2 1201C1112.7 1201 1047.3 1201 981.8 1201C916.3 1201 850.7 1201 785.2 1201C719.7 1201 654.3 1201 589 1201C523.7 1201 458.3 1201 392.8 1201C327.3 1201 261.7 1201 196.2 1201C130.7 1201 65.3 1201 32.7 1201L0 1201Z" fill="#0e0b0b"></path><path d="M0 973L32.7 990.8C65.3 1008.7 130.7 1044.3 196.2 1058.5C261.7 1072.7 327.3 1065.3 392.8 1063.5C458.3 1061.7 523.7 1065.3 589 1059.7C654.3 1054 719.7 1039 785.2 1040.5C850.7 1042 916.3 1060 981.8 1057.3C1047.3 1054.7 1112.7 1031.3 1178.2 1023C1243.7 1014.7 1309.3 1021.3 1374.8 1026C1440.3 1030.7 1505.7 1033.3 1571 1033.3C1636.3 1033.3 1701.7 1030.7 1767.2 1029.2C1832.7 1027.7 1898.3 1027.3 1963.8 1024.2C2029.3 1021 2094.7 1015 2127.3 1012L2160 1009L2160 1201L2127.3 1201C2094.7 1201 2029.3 1201 1963.8 1201C1898.3 1201 1832.7 1201 1767.2 1201C1701.7 1201 1636.3 1201 1571 1201C1505.7 1201 1440.3 1201 1374.8 1201C1309.3 1201 1243.7 1201 1178.2 1201C1112.7 1201 1047.3 1201 981.8 1201C916.3 1201 850.7 1201 785.2 1201C719.7 1201 654.3 1201 589 1201C523.7 1201 458.3 1201 392.8 1201C327.3 1201 261.7 1201 196.2 1201C130.7 1201 65.3 1201 32.7 1201L0 1201Z" fill="#0b0606"></path><path d="M0 1135L32.7 1129.2C65.3 1123.3 130.7 1111.7 196.2 1102.5C261.7 1093.3 327.3 1086.7 392.8 1078.5C458.3 1070.3 523.7 1060.7 589 1059.5C654.3 1058.3 719.7 1065.7 785.2 1066.2C850.7 1066.7 916.3 1060.3 981.8 1068.7C1047.3 1077 1112.7 1100 1178.2 1108.3C1243.7 1116.7 1309.3 1110.3 1374.8 1107.2C1440.3 1104 1505.7 1104 1571 1096.8C1636.3 1089.7 1701.7 1075.3 1767.2 1082C1832.7 1088.7 1898.3 1116.3 1963.8 1122.3C2029.3 1128.3 2094.7 1112.7 2127.3 1104.8L2160 1097L2160 1201L2127.3 1201C2094.7 1201 2029.3 1201 1963.8 1201C1898.3 1201 1832.7 1201 1767.2 1201C1701.7 1201 1636.3 1201 1571 1201C1505.7 1201 1440.3 1201 1374.8 1201C1309.3 1201 1243.7 1201 1178.2 1201C1112.7 1201 1047.3 1201 981.8 1201C916.3 1201 850.7 1201 785.2 1201C719.7 1201 654.3 1201 589 1201C523.7 1201 458.3 1201 392.8 1201C327.3 1201 261.7 1201 196.2 1201C130.7 1201 65.3 1201 32.7 1201L0 1201Z" fill="#080101"></path></svg>